<?xml version="1.0" standalone="no"?>
<!DOCTYPE svg PUBLIC "-//W3C//DTD SVG 20010904//EN"
 "http://www.w3.org/TR/2001/REC-SVG-20010904/DTD/svg10.dtd">
<svg version="1.0" xmlns="http://www.w3.org/2000/svg"
 width="528.000000pt" height="528.000000pt" viewBox="0 0 528.000000 528.000000"
 preserveAspectRatio="xMidYMid meet">
<metadata>
Created by potrace 1.16, written by Peter Selinger 2001-2019
</metadata>
<g transform="translate(0.000000,528.000000) scale(0.100000,-0.100000)"
fill="#000000" stroke="none">
<path d="M1622 3524 c-15 -10 -22 -25 -22 -49 0 -44 24 -60 113 -75 37 -7 67
-16 67 -21 0 -5 18 -228 40 -496 39 -468 41 -488 67 -534 14 -27 44 -61 66
-76 l40 -28 534 -3 c513 -2 534 -2 571 17 50 26 98 81 112 128 15 54 90 587
90 643 0 34 -8 58 -29 91 -51 82 -32 79 -599 79 -550 0 -525 3 -525 -61 0 -66
-17 -63 520 -69 472 -5 486 -6 498 -25 10 -17 5 -71 -30 -315 -23 -163 -47
-306 -54 -318 -6 -12 -20 -26 -31 -32 -12 -6 -197 -10 -518 -10 l-499 0 -23
25 c-23 24 -25 42 -66 540 -23 283 -45 523 -49 535 -9 28 -27 35 -136 54 -117
19 -110 19 -137 0z"/>
<path d="M2587 2862 c-21 -23 -22 -62 -3 -88 13 -17 29 -19 141 -22 137 -4
165 0 189 24 22 21 20 67 -2 87 -16 14 -43 17 -164 17 -128 0 -147 -2 -161
-18z"/>
<path d="M2010 2083 c-42 -22 -80 -76 -80 -115 0 -34 20 -76 48 -101 98 -89
255 30 196 149 -35 71 -103 98 -164 67z"/>
<path d="M2970 2083 c-42 -22 -80 -76 -80 -115 0 -34 20 -76 48 -101 98 -89
255 30 196 149 -35 71 -103 98 -164 67z"/>
</g>
</svg>
