<?xml version="1.0" standalone="no"?>
<!DOCTYPE svg PUBLIC "-//W3C//DTD SVG 20010904//EN"
 "http://www.w3.org/TR/2001/REC-SVG-20010904/DTD/svg10.dtd">
<svg version="1.0" xmlns="http://www.w3.org/2000/svg"
 width="528.000000pt" height="528.000000pt" viewBox="0 0 528.000000 528.000000"
 preserveAspectRatio="xMidYMid meet">
<metadata>
Created by potrace 1.16, written by Peter Selinger 2001-2019
</metadata>
<g transform="translate(0.000000,528.000000) scale(0.100000,-0.100000)"
fill="#000000" stroke="none">
<path d="M2575 3403 c-54 -20 -260 -165 -276 -194 -15 -28 -11 -57 11 -79 33
-33 65 -25 148 38 135 103 156 114 211 114 33 0 63 -7 86 -21 52 -30 539 -426
564 -457 21 -26 21 -36 21 -413 0 -354 -2 -389 -19 -426 -40 -88 -98 -115
-245 -115 -85 0 -105 3 -110 16 -3 9 -6 94 -6 190 0 196 -9 231 -72 276 -32
22 -40 23 -213 23 -173 0 -181 -1 -213 -23 -54 -39 -72 -87 -72 -197 0 -82 3
-98 20 -115 27 -27 62 -25 88 3 19 20 22 35 22 103 0 49 5 85 12 92 8 8 55 12
145 12 121 0 133 -2 143 -19 6 -12 10 -94 10 -196 0 -164 2 -180 22 -217 33
-59 74 -79 171 -85 207 -13 340 48 414 189 l28 53 3 418 3 418 -24 52 c-28 61
-54 85 -377 344 -124 99 -245 191 -270 203 -61 31 -158 37 -225 13z"/>
<path d="M1991 2950 c-64 -51 -97 -100 -111 -167 -8 -34 -10 -180 -8 -430 l3
-378 33 -67 c38 -77 92 -130 171 -166 53 -25 66 -27 254 -30 208 -4 236 -2
261 24 22 22 20 70 -4 94 -19 19 -33 20 -220 20 -159 0 -208 3 -238 15 -47 20
-79 50 -103 97 -18 35 -19 63 -19 423 0 428 0 425 65 465 58 36 71 79 35 118
-30 32 -62 27 -119 -18z"/>
</g>
</svg>
