<?xml version="1.0" standalone="no"?>
<!DOCTYPE svg PUBLIC "-//W3C//DTD SVG 20010904//EN"
 "http://www.w3.org/TR/2001/REC-SVG-20010904/DTD/svg10.dtd">
<svg version="1.0" xmlns="http://www.w3.org/2000/svg"
 width="528.000000pt" height="528.000000pt" viewBox="0 0 528.000000 528.000000"
 preserveAspectRatio="xMidYMid meet">
<metadata>
Created by potrace 1.16, written by Peter Selinger 2001-2019
</metadata>
<g transform="translate(0.000000,528.000000) scale(0.100000,-0.100000)"
fill="#000000" stroke="none">
<path d="M2488 3440 c-292 -49 -535 -244 -637 -509 -42 -108 -55 -195 -48
-325 6 -127 29 -212 88 -326 217 -418 771 -563 1173 -306 31 20 60 36 64 36 4
0 63 -56 132 -125 142 -142 168 -158 208 -128 18 13 28 31 30 54 3 32 -5 43
-169 201 -114 112 -180 168 -194 168 -12 0 -48 -21 -81 -46 -77 -61 -201 -120
-289 -139 -421 -89 -825 229 -825 650 0 249 144 477 370 589 206 101 408 101
619 -1 181 -87 316 -260 355 -455 20 -99 20 -179 0 -272 -19 -86 -14 -118 21
-134 84 -38 130 63 129 278 -1 187 -54 341 -169 488 -176 226 -495 349 -777
302z"/>
</g>
</svg>
